<?xml version="1.0" encoding="UTF-8"?>
<svg id="Layer_1" data-name="Layer 1" xmlns="http://www.w3.org/2000/svg" viewBox="0 0 950 950">
  <defs>
    <style>
      .cls-1 {
        fill: #fff;
        fill-rule: evenodd;
      }

      .cls-1, .cls-2 {
        stroke-width: 0px;
      }

      .cls-2 {
        fill: #231f20;
      }
    </style>
  </defs>
  <rect class="cls-2" width="950" height="950"/>
  <g>
    <path class="cls-1" d="M257.43,560.58h-45.51l-13.92-33.57h-75.85l-12.68,33.57h-44.76l68.39-169.6h48.99l75.35,169.6h0ZM158.21,431.51l-24.87,65.9h52.22l-27.35-65.9h0Z"/>
    <polygon class="cls-1" points="422.74 390.98 459.55 390.98 459.55 560.58 417.27 560.58 417.27 454.64 371.51 507.86 365.05 507.86 319.29 454.64 319.29 560.58 277.02 560.58 277.02 390.98 313.82 390.98 368.28 453.9 422.74 390.98 422.74 390.98"/>
    <path class="cls-1" d="M566.67,390.98c61.92,0,93.75,38.55,93.75,85.05s-30.84,84.55-98.48,84.55h-70.12v-169.6h74.85ZM534.1,529.49h27.6c42.53,0,55.21-28.85,55.21-53.71,0-29.1-15.67-53.71-55.7-53.71h-27.11v107.43h0Z"/>
    <polygon class="cls-1" points="831.26 430.58 744.35 430.58 691.53 377.51 885.29 377.27 885.29 571.27 831.26 516.99 831.26 430.58 831.26 430.58"/>
    <polygon class="cls-1" points="744.35 518.69 744.6 440.31 689.58 495.33 689.58 572.73 769.18 572.73 823.22 518.69 744.35 518.69 744.35 518.69"/>
  </g>
</svg>